<?xml version="1.0" standalone="no"?>
<!DOCTYPE svg PUBLIC "-//W3C//DTD SVG 20010904//EN"
 "http://www.w3.org/TR/2001/REC-SVG-20010904/DTD/svg10.dtd">
<svg version="1.0" xmlns="http://www.w3.org/2000/svg"
 width="500.000000pt" height="500.000000pt" viewBox="0 0 500.000000 500.000000"
 preserveAspectRatio="xMidYMid meet">
<metadata>
Created by potrace 1.14, written by Peter Selinger 2001-2017
</metadata>
<g transform="translate(0.000000,500.000000) scale(0.100000,-0.100000)"
fill="#000000" stroke="none">
<path d="M3891 3571 c-8 -5 -12 -19 -9 -35 4 -19 -1 -29 -16 -39 -12 -8 -25
-15 -29 -15 -9 -1 -67 -71 -67 -80 0 -3 7 -13 16 -23 14 -16 13 -20 -9 -56
-43 -67 -79 -94 -121 -91 -31 2 -43 -4 -86 -47 -55 -54 -59 -64 -32 -87 39
-34 64 -15 214 164 31 37 58 64 61 62 12 -12 -8 -91 -29 -117 -13 -16 -24 -32
-24 -37 0 -4 -11 -11 -24 -14 -20 -5 -23 -10 -17 -38 9 -44 23 -44 43 0 10 20
32 53 50 72 l33 34 6 -44 c4 -25 4 -57 2 -72 -5 -27 -4 -28 36 -28 46 0 50 5
21 28 -17 15 -20 32 -24 131 -4 117 7 182 27 162 13 -13 67 41 67 67 -1 13 -7
10 -24 -12 l-24 -28 -4 38 c-3 22 -1 47 4 57 5 10 5 25 -2 37 -12 22 -18 24
-39 11z"/>
<path d="M1213 3044 c-31 -13 -8 -24 48 -24 44 0 60 3 57 13 -5 12 -82 20
-105 11z"/>
<path d="M1470 3040 c-18 -6 -9 -8 35 -8 44 0 53 2 35 8 -14 4 -29 8 -35 8 -5
0 -21 -4 -35 -8z"/>
<path d="M1740 3035 c-11 -13 -8 -15 25 -15 25 0 35 4 33 13 -7 18 -43 20 -58
2z"/>
<path d="M1810 3031 c0 -15 6 -21 21 -21 25 0 22 33 -4 38 -12 2 -17 -3 -17
-17z"/>
<path d="M2799 3030 c52 -11 96 -18 98 -16 9 8 -64 26 -125 31 -66 5 -66 5 27
-15z"/>
<path d="M3066 3043 c-3 -4 -6 -24 -6 -45 0 -34 3 -39 37 -53 20 -9 47 -18 60
-22 24 -5 24 -4 21 58 l-3 64 -52 2 c-28 1 -54 -1 -57 -4z"/>
<path d="M3572 3042 c-10 -7 -12 -50 -11 -181 l1 -173 52 -23 c28 -13 53 -21
55 -19 2 1 3 71 2 155 l-1 152 68 -7 c86 -9 130 -32 165 -87 35 -58 48 -140
38 -254 l-8 -90 44 -47 c48 -52 41 -57 63 42 13 60 13 185 -1 273 -14 90 -46
154 -101 201 -44 38 -51 38 -73 -8 -3 -7 -7 -7 -11 2 -3 7 -16 25 -29 40 -22
26 -28 27 -132 30 -59 1 -114 -1 -121 -6z"/>
<path d="M920 3028 c0 -7 3 -23 6 -34 6 -21 8 -21 56 -8 58 15 62 18 55 39 -8
19 -117 22 -117 3z"/>
<path d="M2061 3029 c-49 -9 -79 -29 -45 -29 10 0 29 -3 41 -6 15 -4 22 -1 26
13 4 16 5 16 6 1 0 -10 7 -18 14 -18 6 0 59 -7 117 -15 150 -21 152 -20 110
15 -19 16 -51 34 -70 40 -41 12 -137 11 -199 -1z"/>
<path d="M2494 3026 c-3 -8 -4 -31 -2 -52 3 -39 3 -39 57 -47 45 -6 57 -4 63
8 7 11 27 15 86 15 89 0 126 -15 130 -51 3 -23 10 -27 57 -36 50 -9 55 -8 61
9 8 26 -5 95 -21 108 -11 9 -195 50 -225 50 -6 0 -10 -8 -11 -17 0 -14 -2 -15
-6 -3 -10 25 -25 30 -106 30 -57 0 -79 -4 -83 -14z"/>
<path d="M1217 2973 c-6 -10 34 -173 42 -173 3 0 13 24 22 53 9 28 24 69 33
90 l16 37 -54 0 c-30 0 -57 -3 -59 -7z"/>
<path d="M1436 2968 c-9 -28 -36 -148 -36 -157 0 -5 23 6 51 25 28 19 55 34
60 34 6 0 39 89 39 107 0 2 -25 3 -55 3 -36 0 -57 -4 -59 -12z"/>
<path d="M1743 2955 c-23 -10 -33 -21 -33 -36 0 -22 -15 -79 -52 -197 -11 -35
-18 -65 -16 -68 3 -2 31 7 63 20 57 23 58 25 76 82 22 70 26 214 7 214 -7 -1
-28 -7 -45 -15z"/>
<path d="M1811 2918 c1 -49 2 -51 9 -18 4 19 11 43 15 53 5 12 3 17 -9 17 -13
0 -16 -10 -15 -52z"/>
<path d="M1923 2922 c-20 -35 -51 -178 -40 -188 2 -2 26 1 54 7 l50 12 12 58
c8 43 21 68 46 95 20 20 34 38 33 39 -2 2 -32 6 -68 9 l-66 7 -21 -39z"/>
<path d="M983 2938 c-38 -12 -38 -14 -18 -93 38 -144 31 -133 96 -166 34 -17
63 -28 66 -25 2 2 -4 37 -15 78 -11 40 -25 100 -32 133 -18 88 -27 95 -97 73z"/>
<path d="M3060 2881 l0 -58 53 -11 c28 -5 53 -9 54 -8 4 4 6 39 5 67 -2 22
-11 30 -51 48 -27 11 -52 21 -55 21 -3 0 -6 -26 -6 -59z"/>
<path d="M1315 2894 c-22 -47 -45 -140 -39 -160 2 -8 6 -21 9 -29 3 -11 16 -3
46 30 39 42 40 47 34 87 -4 23 -13 58 -19 76 l-12 35 -19 -39z"/>
<path d="M2274 2896 c14 -17 27 -48 31 -68 7 -35 10 -38 41 -38 l34 0 0 59 0
60 -47 6 c-27 3 -56 8 -65 10 -15 2 -13 -2 6 -29z"/>
<path d="M2390 2848 c0 -47 3 -58 16 -58 14 0 15 7 10 42 -12 71 -25 80 -26
16z"/>
<path d="M2492 2839 l3 -54 52 -3 51 -3 7 41 c4 23 3 46 -1 50 -5 5 -33 12
-62 16 l-53 7 3 -54z"/>
<path d="M1465 2825 c-77 -52 -82 -60 -78 -118 7 -86 24 -187 33 -187 16 0 28
26 28 60 0 19 14 84 32 143 17 60 30 113 28 118 -2 6 -21 -2 -43 -16z"/>
<path d="M2786 2832 c-6 -11 -72 -43 -92 -46 -13 -2 -32 -16 -23 -16 2 -1 40
-7 84 -15 l80 -14 38 37 c37 36 37 37 15 43 -56 15 -97 19 -102 11z"/>
<path d="M2317 2774 c-4 -4 -7 -20 -7 -36 0 -16 -9 -47 -20 -68 l-20 -40 55 0
56 0 -3 73 c-3 69 -4 72 -28 75 -14 2 -29 0 -33 -4z"/>
<path d="M2391 2703 l1 -78 13 40 c19 57 19 115 0 115 -12 0 -15 -15 -14 -77z"/>
<path d="M3066 2747 c2 -77 2 -77 50 -98 26 -11 48 -18 49 -17 2 2 5 30 6 62
l4 60 -50 13 c-27 7 -52 13 -55 13 -3 0 -5 -15 -4 -33z"/>
<path d="M2492 2705 c-2 -62 -1 -66 24 -75 45 -18 91 -13 97 11 3 11 14 23 25
26 15 4 21 15 24 48 l3 43 -44 6 c-24 3 -63 6 -86 6 l-41 0 -2 -65z"/>
<path d="M2675 2752 c-3 -3 -5 -21 -5 -39 0 -33 1 -34 34 -27 34 6 35 5 49
-42 15 -51 18 -53 100 -68 40 -7 48 5 28 42 -6 9 -17 38 -27 64 -14 40 -21 48
-48 53 -17 3 -52 9 -78 14 -26 5 -50 6 -53 3z"/>
<path d="M1331 2713 c-34 -41 -36 -54 -20 -100 8 -23 6 -45 -6 -93 -15 -57
-13 -121 3 -119 4 0 28 24 53 53 l46 53 -13 64 c-8 35 -14 87 -14 116 0 28 -4
54 -9 58 -5 3 -23 -12 -40 -32z"/>
<path d="M1923 2729 c-40 -12 -41 -26 -9 -95 l24 -51 58 10 c33 6 61 12 63 14
3 2 -7 16 -21 31 -14 15 -31 44 -38 65 -12 39 -21 42 -77 26z"/>
<path d="M1691 2657 c-47 -19 -56 -27 -64 -57 -8 -33 -5 -106 6 -117 3 -2 23
5 44 16 37 18 41 24 60 100 11 45 17 81 14 81 -3 0 -30 -11 -60 -23z"/>
<path d="M3069 2657 c-5 -10 -4 -138 0 -145 9 -13 52 -34 58 -28 9 9 34 128
29 134 -7 6 -86 42 -87 39z"/>
<path d="M1036 2588 c9 -29 40 -129 69 -223 30 -93 57 -182 61 -197 6 -26 10
-28 56 -28 41 0 49 3 44 15 -3 8 -13 52 -22 98 -8 45 -31 134 -50 197 -20 63
-38 123 -40 133 -3 9 -12 17 -20 17 -8 0 -32 9 -54 20 -57 29 -61 26 -44 -32z"/>
<path d="M3568 2588 c-1 -24 0 -90 1 -148 2 -58 3 -148 4 -200 l2 -95 90 1
c76 1 99 5 145 28 58 27 128 81 119 91 -3 3 -25 -2 -48 -10 -45 -15 -212 -45
-256 -45 -29 0 -45 27 -24 41 8 5 29 9 48 9 l33 0 -6 113 c-3 61 -6 137 -6
169 l0 56 -47 16 c-26 9 -48 16 -50 16 -2 0 -4 -19 -5 -42z"/>
<path d="M2231 2604 c-36 -16 -119 -23 -137 -11 -10 6 -133 -11 -143 -19 -7
-6 52 -53 88 -70 21 -10 63 -17 110 -18 64 -1 85 4 133 27 49 24 98 74 98 101
0 12 -115 4 -149 -10z m-114 -91 c-3 -10 -5 -2 -5 17 0 19 2 27 5 18 2 -10 2
-26 0 -35z"/>
<path d="M2502 2553 l3 -68 53 -3 52 -3 0 61 c0 66 1 65 -68 74 l-43 6 3 -67z"/>
<path d="M3164 2583 c-3 -16 -10 -45 -15 -66 -11 -41 -6 -57 17 -57 11 0 14
16 14 75 0 78 -5 94 -16 48z"/>
<path d="M2796 2514 c22 -67 35 -84 65 -84 11 0 19 16 28 55 7 30 10 59 7 64
-5 8 -90 31 -115 31 -4 0 3 -30 15 -66z"/>
<path d="M1436 2517 c-19 -14 -19 -16 8 -93 31 -88 67 -174 72 -174 14 0 144
94 144 104 0 17 -31 106 -37 106 -23 0 -44 -29 -62 -90 -12 -38 -25 -70 -30
-70 -5 0 -13 17 -18 38 -7 27 -14 36 -27 34 -14 -3 -15 0 -5 16 10 16 9 31 -7
81 -18 58 -20 61 -38 48z"/>
<path d="M1596 2494 c-4 -15 -5 -29 -2 -31 9 -9 26 8 26 27 0 30 -17 32 -24 4z"/>
<path d="M2895 2469 c-7 -42 2 -58 34 -59 14 0 11 22 -9 75 -13 34 -17 32 -25
-16z"/>
<path d="M1668 2484 c-31 -16 -32 -23 -13 -74 l13 -35 10 26 c12 30 26 99 21
99 -2 -1 -16 -8 -31 -16z"/>
<path d="M1367 2451 c-52 -58 -59 -73 -45 -113 17 -53 24 -52 37 7 14 60 27
64 37 9 6 -32 8 -34 23 -19 28 24 37 17 12 -9 l-23 -24 23 -62 22 -61 29 29
29 29 -30 64 c-16 35 -37 89 -46 119 -10 30 -21 59 -25 63 -4 4 -23 -10 -43
-32z"/>
<path d="M3065 2433 c2 -77 3 -83 14 -83 6 0 18 25 28 56 17 55 17 57 -2 70
-34 25 -41 17 -40 -43z"/>
<path d="M2498 2418 c-1 -29 -1 -93 2 -143 l5 -90 43 -3 c29 -2 42 1 43 10 0
7 4 4 8 -6 4 -11 8 49 10 132 l2 152 -55 0 -54 0 -4 -52z"/>
<path d="M3117 2407 c-9 -30 -17 -57 -17 -61 0 -8 61 -46 74 -46 14 0 -1 142
-16 151 -21 14 -24 11 -41 -44z"/>
<path d="M3893 2402 c-12 -26 -39 -64 -59 -84 l-36 -37 38 11 c74 20 124 57
124 93 0 21 -26 65 -38 65 -4 0 -17 -22 -29 -48z"/>
<path d="M1262 2377 c-23 -100 -9 -135 19 -46 15 47 15 99 0 99 -4 0 -12 -24
-19 -53z"/>
<path d="M2820 2428 c0 -2 6 -23 14 -48 l13 -44 13 37 c6 21 10 40 8 41 -5 5
-48 18 -48 14z"/>
<path d="M2107 2413 c-2 -5 -3 -21 -2 -38 1 -16 3 -38 4 -47 0 -10 7 -18 15
-18 8 0 17 8 19 18 4 16 5 16 6 0 1 -14 10 -18 36 -18 l35 0 0 55 0 55 -54 0
c-30 0 -57 -3 -59 -7z m30 -50 c-3 -10 -5 -2 -5 17 0 19 2 27 5 18 2 -10 2
-26 0 -35z"/>
<path d="M2871 2373 c-15 -52 -14 -78 5 -162 l16 -71 54 0 c52 0 54 1 54 28 0
34 -45 211 -56 222 -5 5 -21 12 -36 15 -24 6 -27 3 -37 -32z"/>
<path d="M1291 2332 c-20 -38 -24 -113 -8 -152 10 -23 17 -30 20 -20 23 70 27
86 27 109 -1 14 -7 40 -14 56 l-13 30 -12 -23z"/>
<path d="M3067 2333 c-4 -3 -7 -11 -7 -17 0 -6 5 -5 12 2 6 6 9 14 7 17 -3 3
-9 2 -12 -2z"/>
<path d="M3081 2307 c-5 -14 -11 -55 -13 -93 l-3 -69 61 -3 62 -3 26 47 c14
26 26 48 26 49 0 2 -13 6 -29 10 -16 3 -31 14 -34 25 -3 10 -23 28 -46 39
l-41 22 -9 -24z"/>
<path d="M1582 2278 l-62 -41 27 -48 c28 -53 37 -58 51 -31 16 29 55 152 51
157 -3 2 -33 -14 -67 -37z"/>
<path d="M2123 2253 c-8 -3 -13 -22 -13 -44 0 -35 3 -39 25 -39 20 0 25 5 26
28 2 23 2 24 6 5 3 -16 11 -23 29 -23 21 0 24 5 24 35 0 32 -2 35 -30 35 -17
0 -30 -5 -30 -12 0 -7 -5 -6 -12 4 -7 9 -19 14 -25 11z"/>
<path d="M3260 2241 c0 -7 82 -101 89 -101 11 0 53 91 46 99 -7 6 -135 9 -135
2z"/>
<path d="M3425 2238 c-6 -17 21 -93 32 -92 13 3 36 71 30 89 -8 18 -56 20 -62
3z"/>
<path d="M1482 2197 c-38 -40 -29 -57 28 -57 l50 0 -20 40 c-11 22 -24 40 -28
40 -5 0 -18 -10 -30 -23z"/>
<path d="M3222 2180 l-23 -40 61 0 c33 0 60 4 60 8 0 8 -62 72 -70 72 -3 0
-15 -18 -28 -40z"/>
<path d="M3389 2188 c-7 -18 -14 -36 -17 -40 -2 -5 12 -8 31 -8 35 0 35 0 26
32 -14 49 -25 53 -40 16z"/>
<path d="M2500 2158 c0 -16 7 -18 55 -17 84 3 71 21 -22 32 -27 3 -33 0 -33
-15z"/>
<path d="M2180 2154 c0 -9 7 -14 17 -12 25 5 28 28 4 28 -12 0 -21 -6 -21 -16z"/>
<path d="M2110 2150 c0 -5 14 -10 30 -10 17 0 30 5 30 10 0 6 -13 10 -30 10
-16 0 -30 -4 -30 -10z"/>
<path d="M2163 1958 c10 -8 17 -32 20 -63 l3 -50 2 57 c2 44 6 58 20 61 9 3
-1 5 -22 6 -34 1 -37 -1 -23 -11z"/>
<path d="M2371 1908 c0 -35 3 -56 6 -48 2 8 7 21 9 29 3 9 11 5 25 -13 12 -15
24 -25 27 -22 3 3 -2 14 -12 25 -15 16 -15 19 -1 24 20 8 19 53 -1 61 -46 18
-54 9 -53 -56z m43 46 c27 -10 20 -44 -9 -44 -18 0 -25 5 -25 18 0 29 9 36 34
26z"/>
<path d="M2781 1908 c1 -35 4 -51 6 -36 3 20 11 28 31 30 49 6 36 68 -14 68
-23 0 -24 -3 -23 -62z m48 43 c19 -12 6 -41 -19 -41 -15 0 -20 7 -20 25 0 26
14 31 39 16z"/>
<path d="M2602 1905 c-1 -37 2 -54 7 -45 5 8 5 35 1 60 l-7 45 -1 -60z"/>
<path d="M890 1935 c-12 -15 -8 -48 10 -75 9 -13 11 -13 20 0 18 27 22 60 10
75 -7 8 -16 15 -20 15 -4 0 -13 -7 -20 -15z m35 -14 c7 -12 -12 -24 -25 -16
-11 7 -4 25 10 25 5 0 11 -4 15 -9z"/>
<path d="M4111 1941 c-12 -8 -13 -18 -5 -47 12 -50 29 -53 44 -9 9 28 9 39 0
50 -14 17 -20 18 -39 6z m19 -21 c-12 -8 -12 -10 -1 -10 8 0 12 -3 8 -6 -9 -9
-28 6 -22 17 4 5 12 9 18 9 7 0 6 -4 -3 -10z"/>
</g>
</svg>
